<svg width="32" height="32" viewBox="0 0 32 32" fill="none" xmlns="http://www.w3.org/2000/svg">
<path d="M18.6562 10.0007C18.8006 10.3446 18.875 10.7131 18.875 11.0853H13.125C13.125 10.7131 13.1994 10.3446 13.3438 10.0007C13.4883 9.65687 13.7001 9.34444 13.9671 9.08127C14.234 8.8181 14.551 8.60934 14.8998 8.46691C15.2486 8.32448 15.6224 8.25117 16 8.25117C16.3776 8.25117 16.7514 8.32448 17.1002 8.46691C17.449 8.60934 17.766 8.8181 18.0329 9.08127C18.2999 9.34444 18.5117 9.65687 18.6562 10.0007Z" fill="white"/>
<path d="M10.8695 21.3387C10.6824 21.1542 10.6824 20.8552 10.8695 20.6707L12.4365 19.126C12.2703 18.8829 12.1292 18.6228 12.0158 18.3497C11.9348 18.1547 11.8685 17.3022 11.8172 16.2812H9.77083C9.5062 16.2812 9.29167 16.0697 9.29167 15.8088C9.29167 15.5479 9.5062 15.3365 9.77083 15.3365H11.7754C11.737 14.3567 11.711 13.3582 11.6978 12.7081L10.3903 11.4193C10.2032 11.2348 10.2032 10.9358 10.3903 10.7513C10.5775 10.5668 10.8809 10.5668 11.068 10.7513L12.3651 12.03H19.6349L20.932 10.7513C21.1191 10.5668 21.4225 10.5668 21.6097 10.7513C21.7968 10.9358 21.7968 11.2348 21.6097 11.4193L20.3022 12.7081C20.289 13.3582 20.263 14.3567 20.2246 15.3365H22.2292C22.4938 15.3365 22.7083 15.5479 22.7083 15.8088C22.7083 16.0697 22.4938 16.2812 22.2292 16.2812H20.1828C20.1315 17.3022 20.0652 18.1547 19.9842 18.3497C19.8708 18.6228 19.7297 18.8829 19.5635 19.126L21.1305 20.6707C21.3176 20.8552 21.3176 21.1542 21.1305 21.3387C20.9434 21.5232 20.64 21.5232 20.4528 21.3387L18.9415 19.8489C18.5646 20.1995 18.1273 20.4803 17.6503 20.6773C17.2753 20.8322 16.881 20.9333 16.4792 20.9781V12.9747H15.5208V20.9781C15.119 20.9333 14.7247 20.8322 14.3497 20.6773C13.8727 20.4803 13.4354 20.1995 13.0585 19.8489L11.5472 21.3387C11.36 21.5232 11.0566 21.5232 10.8695 21.3387Z" fill="white"/>
<path fill-rule="evenodd" clip-rule="evenodd" d="M22.0027 25.0079C20.2554 26.0641 18.1998 26.6729 16 26.6729C9.64873 26.6729 4.5 21.5974 4.5 15.3365C4.5 9.07551 9.64873 4 16 4C22.3513 4 27.5 9.07551 27.5 15.3365C27.5 18.4075 26.2613 21.1933 24.2495 23.2348L26.1046 25.7494C26.5716 26.3823 26.4296 27.2686 25.7876 27.7289C25.1455 28.1892 24.2465 28.0492 23.7795 27.4163L22.0027 25.0079ZM6.82142 15.3365C6.82142 20.3336 10.9308 24.3845 16 24.3845C21.0692 24.3845 25.1786 20.3336 25.1786 15.3365C25.1786 10.3394 21.0692 6.28841 16 6.28841C10.9308 6.28841 6.82142 10.3394 6.82142 15.3365Z" fill="white"/>
</svg>
